<svg width="332" height="63" viewBox="0 0 332 63" fill="none" xmlns="http://www.w3.org/2000/svg">
<path d="M1.16003 0.810059H52.4V20.1501C52.4 29.0101 49.1 47.8101 26.97 61.7901C26.97 61.7901 2.99003 51.7801 1.16003 20.1501V0.810059Z" fill="#C41230" stroke="#231F20" stroke-width="0.72"/>
<path d="M40.41 26.4601C40.41 26.4601 39.95 27.9101 37.92 26.4201L30.95 26.2501C30.95 26.2501 30.04 26.5401 29.91 25.5901C29.91 25.5901 30.08 23.6801 30 23.5101C30 23.5101 30.04 22.9701 29.13 22.9701C29.13 22.9701 27.72 23.1401 27.68 21.8901C27.68 21.8901 27.43 20.5601 29.38 20.6001C29.38 20.6001 30 20.8901 30.04 20.1001C30.04 20.1001 29.96 14.7001 30 14.2901C30 14.2901 30.17 13.7901 29.21 13.7101C29.21 13.7101 27.84 14.0001 27.67 13.0901C27.67 13.0901 27.59 11.7201 28.5 11.6301C28.5 11.6301 29.62 11.7101 29.83 11.4201C29.83 11.4201 30.08 11.5901 30.04 10.5901L30.08 8.88013C30.08 8.88013 30.2 8.42012 30.91 8.47012C30.91 8.47012 32.2 8.55011 32.36 8.43011C32.36 8.43011 32.65 8.06014 32.73 7.89014C32.73 7.89014 33.4 7.85013 33.52 8.01013C33.52 8.01013 34.52 8.67011 38.29 8.43011C38.29 8.43011 38.87 8.43013 39 8.60013C39 8.60013 39.7 9.14012 40.12 8.56012C40.12 8.56012 40.74 8.44013 42.61 8.48013C42.61 8.48013 44.65 9.02011 46.06 7.86011L46.51 7.94012C46.51 7.94012 47.09 8.90011 47.51 8.61011C47.51 8.61011 48.75 8.49013 48.96 8.73013C48.96 8.73013 49.37 9.35012 49.17 10.9701C49.17 10.9701 48.92 11.6801 50.13 11.6801C50.13 11.6801 51.5 11.4301 51.33 12.7201C51.33 12.7201 51.7 14.1701 49.42 13.9701C49.42 13.9701 49.13 14.3901 49.17 14.6801C49.17 14.6801 49.13 19.4101 49.09 19.9501C49.09 19.9501 49.05 20.7001 50.05 20.6601C50.05 20.6601 51.38 20.5801 51.42 21.7801C51.42 21.7801 51.59 23.3601 49.67 23.0701C49.67 23.0701 49.09 23.1501 49 23.5301L48.92 25.6101C48.92 25.6101 48.96 26.6501 47.8 26.4001C47.63 26.4001 41.32 26.5201 40.78 26.3601C40.78 26.3601 40.49 26.3201 40.4 26.4801L40.41 26.4601Z" fill="white"/>
<path d="M26.93 33.5C26.93 33.5 27.22 33.38 27.3 33.17C27.3 33.17 28.17 33.09 28.3 32.96L31.04 33.17C31.04 33.17 33.74 33.38 34.9 32.55C34.9 32.55 35.32 32.55 35.61 32.67C35.61 32.67 36.19 32.79 36.36 33.05L37.94 33.01C37.94 33.01 38.85 33.3 38.77 33.89V34.63C38.77 34.63 38.61 36.12 39.02 36.21H40.23C40.23 36.21 41.22 36.67 41.1 37.25C41.1 37.25 41.14 38.08 40.27 38.24C40.27 38.24 39.4 38.49 39.1 38.45C39.1 38.45 38.81 38.83 38.77 39.28L38.65 44.72C38.65 44.72 38.57 45.3 39.44 45.22C39.44 45.22 40.73 45.1 41.1 45.8C41.1 45.8 41.43 47.01 40.77 47.21L40.27 47.46L39.19 47.63C39.19 47.63 38.74 47.67 38.69 48.46V49.92C38.69 49.92 38.73 50.92 37.94 50.92L36.78 51C36.78 51 36.49 51.25 35.91 51.08C35.91 51.08 28.85 51.2 28.6 51.12L27.77 51.29C27.77 51.29 26.86 52.12 26.11 51.49L25.53 51.04C25.53 51.04 25.12 51.12 24.95 51.08C24.78 51.04 17.15 51.16 17.15 51.16C17.15 51.16 15.53 51.33 15.41 50.79C15.41 50.79 15.2 48.67 15.29 48.42C15.29 48.42 15.29 47.8 14.91 47.76C14.91 47.76 13.29 47.68 13.25 47.51C13.25 47.51 12.38 46.89 12.63 46.27C12.63 46.27 12.92 45.44 13.79 45.36C13.79 45.36 15.12 45.57 15.12 45.19C15.12 45.19 15.21 44.94 15.21 44.53C15.21 44.53 15.29 39.59 15.25 39.26C15.25 39.26 15.37 38.64 14.83 38.64C14.83 38.64 14.25 38.8 13.87 38.55C13.87 38.55 12.87 38.59 12.67 37.8C12.67 37.8 12.5 37.3 12.75 36.88C12.75 36.88 13.21 35.97 14.54 36.26C14.54 36.26 15.29 36.47 15.37 35.93L15.33 33.94C15.33 33.94 15.16 33.4 16.2 33.11C16.2 33.11 17.53 33.48 17.94 32.82C17.94 32.82 18.4 31.91 18.77 32.53C18.77 32.53 19.56 33.28 21.72 33.2C21.72 33.2 25.46 32.91 25.54 33.08C25.54 33.08 26.45 33.2 26.7 33.49L26.95 33.53L26.93 33.5Z" fill="white"/>
<path d="M15.59 26.5601C15.59 26.5601 15.13 28.0201 13.1 26.5201L6.13001 26.3501C6.13001 26.3501 5.22001 26.6401 5.09001 25.6901C5.09001 25.6901 5.26001 23.78 5.17001 23.61C5.17001 23.61 5.21002 23.0701 4.30002 23.0701C4.30002 23.0701 2.89001 23.2401 2.85001 21.9901C2.85001 21.9901 2.60002 20.6601 4.55002 20.7001C4.55002 20.7001 5.17001 20.9901 5.22001 20.2001C5.22001 20.2001 5.14001 14.8001 5.18001 14.3801C5.18001 14.3801 5.35001 13.89 4.39001 13.8C4.39001 13.8 3.02001 14.0901 2.86001 13.1701C2.86001 13.1701 2.77002 11.8001 3.69002 11.7201C3.69002 11.7201 4.81001 11.8001 5.02001 11.5101C5.02001 11.5101 5.27002 11.6701 5.23002 10.6801L5.27001 8.98007C5.27001 8.98007 5.39001 8.52006 6.10001 8.56006C6.10001 8.56006 7.39001 8.64005 7.56001 8.52005C7.56001 8.52005 7.85001 8.15007 7.93001 7.98007C7.93001 7.98007 8.60001 7.94005 8.72001 8.11005C8.72001 8.11005 9.71002 8.77005 13.49 8.52005C13.49 8.52005 14.07 8.52006 14.2 8.69006C14.2 8.69006 14.9 9.23005 15.32 8.65005C15.32 8.65005 15.94 8.53007 17.81 8.57007C17.81 8.57007 19.84 9.11007 21.26 7.95007L21.72 8.03006C21.72 8.03006 22.3 8.99006 22.72 8.69006C22.72 8.69006 23.96 8.57006 24.17 8.81006C24.17 8.81006 24.59 9.43005 24.38 11.05C24.38 11.05 24.13 11.7601 25.34 11.7601C25.34 11.7601 26.71 11.51 26.54 12.8C26.54 12.8 26.92 14.26 24.63 14.05C24.63 14.05 24.34 14.4701 24.38 14.7601C24.38 14.7601 24.34 19.4901 24.3 20.0301C24.3 20.0301 24.26 20.7801 25.25 20.7401C25.25 20.7401 26.58 20.66 26.62 21.86C26.62 21.86 26.78 23.4401 24.88 23.1501C24.88 23.1501 24.3 23.23 24.22 23.61L24.14 25.6901C24.14 25.6901 24.18 26.7301 23.02 26.4801C22.85 26.4801 16.55 26.6001 16.01 26.4401C16.01 26.4401 15.72 26.4001 15.63 26.5601H15.59Z" fill="white"/>
<path d="M40.41 26.4601C40.41 26.4601 39.95 27.9101 37.92 26.4201L30.95 26.2501C30.95 26.2501 30.04 26.5401 29.91 25.5901C29.91 25.5901 30.08 23.6801 30 23.5101C30 23.5101 30.04 22.9701 29.13 22.9701C29.13 22.9701 27.72 23.1401 27.68 21.8901C27.68 21.8901 27.43 20.5601 29.38 20.6001C29.38 20.6001 30 20.8901 30.04 20.1001C30.04 20.1001 29.96 14.7001 30 14.2901C30 14.2901 30.17 13.7901 29.21 13.7101C29.21 13.7101 27.84 14.0001 27.67 13.0901C27.67 13.0901 27.59 11.7201 28.5 11.6301C28.5 11.6301 29.62 11.7101 29.83 11.4201C29.83 11.4201 30.08 11.5901 30.04 10.5901L30.08 8.88013C30.08 8.88013 30.2 8.42012 30.91 8.47012C30.91 8.47012 32.2 8.55011 32.36 8.43011C32.36 8.43011 32.65 8.06014 32.73 7.89014C32.73 7.89014 33.4 7.85013 33.52 8.01013C33.52 8.01013 34.52 8.67011 38.29 8.43011C38.29 8.43011 38.87 8.43013 39 8.60013C39 8.60013 39.7 9.14012 40.12 8.56012C40.12 8.56012 40.74 8.44013 42.61 8.48013C42.61 8.48013 44.65 9.02011 46.06 7.86011L46.51 7.94012C46.51 7.94012 47.09 8.90011 47.51 8.61011C47.51 8.61011 48.75 8.49013 48.96 8.73013C48.96 8.73013 49.37 9.35012 49.17 10.9701C49.17 10.9701 48.92 11.6801 50.13 11.6801C50.13 11.6801 51.5 11.4301 51.33 12.7201C51.33 12.7201 51.7 14.1701 49.42 13.9701C49.42 13.9701 49.13 14.3901 49.17 14.6801C49.17 14.6801 49.13 19.4101 49.09 19.9501C49.09 19.9501 49.05 20.7001 50.05 20.6601C50.05 20.6601 51.38 20.5801 51.42 21.7801C51.42 21.7801 51.59 23.3601 49.67 23.0701C49.67 23.0701 49.09 23.1501 49 23.5301L48.92 25.6101C48.92 25.6101 48.96 26.6501 47.8 26.4001C47.63 26.4001 41.32 26.5201 40.78 26.3601C40.78 26.3601 40.49 26.3201 40.4 26.4801L40.41 26.4601Z" fill="#231F20" stroke="#231F20" stroke-width="0.36"/>
<path d="M32.56 9.36007C32.56 9.36007 32.64 10.1901 32.64 10.4001C32.64 10.6101 32.52 22.4001 32.52 22.4001C32.52 22.4001 32.64 23.3101 31.86 23.7701C31.86 23.7701 31.65 23.8501 31.61 23.2701L31.69 10.8201C31.69 10.8201 31.77 9.28007 32.56 9.36007Z" fill="white" stroke="#231F20" stroke-width="0.18"/>
<path d="M31.2 23.8901C31.2 23.8901 31.28 12.18 31.24 11.97C31.2 11.76 31.28 12.1401 31.28 12.1401C31.28 12.1401 31.16 10.1 31.7 9.27003C31.7 9.27003 31.53 8.57005 30.58 9.44005L30.54 11.1401C30.54 11.1401 30.54 12.1 29.67 12.05C29.67 12.05 28.67 12.01 28.22 12.46C28.22 12.46 27.97 13.37 28.93 13.21C28.93 13.21 30.42 13.21 30.51 13.83L30.43 20.1C30.43 20.1 30.76 21.1401 29.6 21.1401C29.6 21.1401 28.18 21.05 28.23 21.93C28.23 21.93 28.52 22.68 29.73 22.43C29.73 22.43 30.6 22.6 30.56 23.43V25.0101C30.56 25.0101 30.47 25.63 31.31 25.68H37.79C37.79 25.68 38.12 25.72 38.12 25.3C38.12 25.3 38.08 24.97 37.58 24.97L32.18 24.8901C32.18 24.8901 31.3 25.18 31.23 23.9L31.2 23.8901Z" fill="white"/>
<path d="M32.32 23.9701C32.32 23.9701 32.15 24.5501 32.77 24.4301H37.05L38.21 24.6801C38.21 24.6801 39.41 24.3901 38.21 23.7201C38.21 23.7201 34.39 23.7601 34.06 23.6801C34.06 23.6801 33.27 23.4701 33.1 23.4301C33.1 23.4301 32.69 23.2601 32.31 23.9701H32.32Z" fill="white" stroke="#231F20" stroke-width="0.18"/>
<path d="M39.41 24.55C39.41 24.55 38.62 24.55 38.66 25.59C38.66 25.59 38.74 26.38 39.58 26.38C39.58 26.38 40.32 26.2601 40.24 25.4201C40.24 25.4201 39.78 24.38 39.41 24.55Z" fill="white"/>
<path d="M40 24.14C40 24.14 40.37 23.73 40.62 23.73C40.62 23.73 44.77 24.1 45.48 23.61C45.48 23.61 46.1001 23.49 46.2701 23.61C46.2701 23.61 46.89 24.11 46.89 24.4C46.89 24.4 46.8501 24.77 46.1001 24.56C46.1001 24.56 41.4101 24.6 41.1601 24.6C41.1601 24.6 39.87 24.89 40 24.14Z" fill="white" stroke="#231F20" stroke-width="0.18"/>
<path d="M40.66 25.3801C40.66 25.3801 40.66 25.05 41.24 25.05L47.05 25.0101C47.05 25.0101 47.59 25.3 47.59 24.3C47.59 24.3 47.8 19.7801 47.82 14.7901C47.82 13.3101 47.9 11.7501 47.84 10.3101C47.84 10.3101 47.71 9.69005 47.54 9.56005C47.54 9.56005 47.54 8.90005 48.25 9.15005C48.25 9.15005 48.87 9.19005 48.71 10.15L48.75 11.6001C48.75 11.6001 48.63 12.2201 49.75 12.0601C49.75 12.0601 50.87 12.2301 50.91 12.6401C50.91 12.6401 51.24 13.4701 49.91 13.3901H48.95C48.95 13.3901 48.53 13.6401 48.66 14.1401L48.53 20.1601C48.53 20.1601 48.45 21.2001 49.45 21.1601C49.45 21.1601 50.49 21.1101 50.69 21.4501C50.69 21.4501 51.4 22.49 49.86 22.4C49.86 22.4 48.9 22.36 48.7 22.52C48.7 22.52 48.53 22.73 48.41 24.68C48.41 24.68 48.49 25.8401 47.62 25.7201C47.62 25.7201 41.85 25.8 41.31 25.68C41.31 25.68 40.73 25.8401 40.64 25.3901L40.66 25.3801Z" fill="white"/>
<path d="M33.19 8.9801L33.07 22.3101C33.07 22.3101 33.03 22.9301 34.06 23.0601C34.06 23.0601 35.26 23.1801 35.56 23.0601C35.56 23.0601 36.35 23.0201 38.38 23.1001C38.38 23.1001 38.88 23.6001 38.92 22.9701C38.92 22.9701 39.25 12.1801 39.09 9.93008C39.09 9.93008 39.05 8.97008 38.34 8.93008C38.34 8.93008 35.19 9.18008 34.89 8.93008L33.64 8.6001C33.64 8.6001 33.14 8.64009 33.18 8.97009L33.19 8.9801Z" fill="white"/>
<path d="M39.75 9.65007C39.75 9.65007 39.62 15.9201 39.67 16.1301L39.59 21.4001L39.42 23.2301C39.42 23.2301 39.6701 23.6101 39.8801 23.3601C39.8801 23.3601 41.21 23.0201 42.04 23.1501C42.04 23.1501 44.7001 23.4001 45.2401 22.9801C45.2401 22.9801 45.66 23.1901 45.78 22.5201C45.78 22.5201 45.94 10.9001 45.86 10.6901C45.86 10.6901 46.02 9.03006 45.94 8.86006C45.94 8.86006 45.9 8.49008 45.19 8.82008C45.19 8.82008 45.27 9.15007 41.33 9.03007C41.33 9.03007 39.83 8.99007 39.75 9.65007Z" fill="white"/>
<path d="M46.3501 9.48002L46.3101 22.6C46.3101 22.6 46.6401 23.76 47.1801 23.64C47.1801 23.64 47.2601 23.39 47.3001 22.97L47.4701 10.47C47.4701 10.47 47.0501 8.48001 46.3501 9.47001V9.48002Z" fill="white" stroke="#231F20" stroke-width="0.18"/>
<path d="M41.2501 13.41C41.1301 13.08 41.9601 13.04 41.9601 13.04L42.3701 13.12C42.6601 13.08 42.9501 13.2 42.9501 13.2C43.2401 13.66 42.7401 13.91 42.7401 13.91L42.5801 14.45C42.5401 14.91 42.5801 18.85 42.5801 18.85C42.6601 19.06 42.9901 19.43 42.9901 19.43C42.9901 19.8 42.5301 19.72 42.5301 19.72L41.3201 19.76C40.9501 19.72 41.0701 19.3 41.0701 19.3C41.4901 19.09 41.6101 18.34 41.6101 18.34V14.23L41.2401 13.4L41.2501 13.41Z" fill="#231F20"/>
<path d="M35.65 17.2701L35.57 18.5601L35.94 19.1801C36.19 19.5101 35.77 19.7601 35.77 19.7601L34.44 19.6301C34.19 19.5101 34.44 19.0901 34.44 19.0901C34.77 18.8801 34.81 18.3401 34.81 18.3401L34.77 15.9301L34.81 14.1901C34.81 13.9801 34.48 13.6101 34.48 13.6101C34.19 13.5701 34.27 13.1901 34.27 13.1901C34.35 12.9801 35.06 13.1101 35.06 13.1101H36.8C38.46 13.6501 38.21 14.8501 38.21 14.8501C38.34 16.0601 37.05 16.5601 37.05 16.5601L36.97 17.2201L38.17 19.1301C38.38 19.3001 38.34 19.4601 38.34 19.4601C38.17 19.9201 37.51 19.4601 37.51 19.4601L36.01 17.1301C35.88 16.9601 35.64 17.2501 35.64 17.2501L35.65 17.2701ZM35.69 13.9901C35.73 14.9001 35.73 16.1501 35.73 16.1501C36.52 16.7701 36.98 15.9001 36.98 15.9001C38.02 14.9001 36.98 13.9901 36.81 13.7401C36.64 13.4901 35.81 13.7001 35.81 13.7001L35.69 13.9901Z" fill="#231F20"/>
<path d="M26.93 33.5C26.93 33.5 27.22 33.38 27.3 33.17C27.3 33.17 28.17 33.09 28.3 32.96L31.04 33.17C31.04 33.17 33.74 33.38 34.9 32.55C34.9 32.55 35.32 32.55 35.61 32.67C35.61 32.67 36.19 32.79 36.36 33.05L37.94 33.01C37.94 33.01 38.85 33.3 38.77 33.89V34.63C38.77 34.63 38.61 36.12 39.02 36.21H40.23C40.23 36.21 41.22 36.67 41.1 37.25C41.1 37.25 41.14 38.08 40.27 38.24C40.27 38.24 39.4 38.49 39.1 38.45C39.1 38.45 38.81 38.83 38.77 39.28L38.65 44.72C38.65 44.72 38.57 45.3 39.44 45.22C39.44 45.22 40.73 45.1 41.1 45.8C41.1 45.8 41.43 47.01 40.77 47.21L40.27 47.46L39.19 47.63C39.19 47.63 38.74 47.67 38.69 48.46V49.92C38.69 49.92 38.73 50.92 37.94 50.92L36.78 51C36.78 51 36.49 51.25 35.91 51.08C35.91 51.08 28.85 51.2 28.6 51.12L27.77 51.29C27.77 51.29 26.86 52.12 26.11 51.49L25.53 51.04C25.53 51.04 25.12 51.12 24.95 51.08C24.78 51.04 17.15 51.16 17.15 51.16C17.15 51.16 15.53 51.33 15.41 50.79C15.41 50.79 15.2 48.67 15.29 48.42C15.29 48.42 15.29 47.8 14.91 47.76C14.91 47.76 13.29 47.68 13.25 47.51C13.25 47.51 12.38 46.89 12.63 46.27C12.63 46.27 12.92 45.44 13.79 45.36C13.79 45.36 15.12 45.57 15.12 45.19C15.12 45.19 15.21 44.94 15.21 44.53C15.21 44.53 15.29 39.59 15.25 39.26C15.25 39.26 15.37 38.64 14.83 38.64C14.83 38.64 14.25 38.8 13.87 38.55C13.87 38.55 12.87 38.59 12.67 37.8C12.67 37.8 12.5 37.3 12.75 36.88C12.75 36.88 13.21 35.97 14.54 36.26C14.54 36.26 15.29 36.47 15.37 35.93L15.33 33.94C15.33 33.94 15.16 33.4 16.2 33.11C16.2 33.11 17.53 33.48 17.94 32.82C17.94 32.82 18.4 31.91 18.77 32.53C18.77 32.53 19.56 33.28 21.72 33.2C21.72 33.2 25.46 32.91 25.54 33.08C25.54 33.08 26.45 33.2 26.7 33.49L26.95 33.53L26.93 33.5Z" fill="#231F20" stroke="#231F20" stroke-width="0.36"/>
<path d="M28.01 49.8201C28.01 49.8201 28.51 49.5701 28.84 49.6601C29.17 49.7401 34.03 49.6201 34.03 49.6201C34.03 49.6201 36.15 49.7801 36.48 49.4901L36.98 49.3201C36.98 49.3201 37.19 49.0701 37.19 48.7401C37.19 48.4101 37.23 47.2801 37.23 47.2801L37.35 46.8701C37.35 46.8701 37.31 46.4601 37.35 35.3701C37.35 35.3701 37.52 34.5001 36.97 33.9601C36.97 33.9601 36.97 33.6301 37.14 33.6701C37.31 33.7101 37.22 33.7101 37.22 33.7101C37.22 33.7101 37.97 33.5001 38.09 33.7901C38.09 33.7901 38.43 34.7801 38.13 35.3701C38.13 35.3701 38.05 36.5801 38.67 36.5801C38.67 36.5801 38.92 36.8301 39.41 36.7001C39.41 36.7001 40.49 36.8201 40.49 37.1501C40.49 37.1501 40.49 37.9001 39.74 37.7701L38.74 37.8501C38.74 37.8501 38.07 37.9701 38.16 38.7601C38.24 39.5501 38.12 45.2001 38.12 45.2001C38.12 45.2001 38.12 45.8701 39.16 45.8201C39.16 45.8201 40.45 45.7801 40.45 46.1501C40.45 46.1501 40.78 46.9801 39.87 47.0201C39.87 47.0201 38.12 46.9801 38.25 47.4701C38.25 47.4701 38.12 48.6301 38.04 48.8401C38.04 48.8401 38.21 49.8001 38 49.9601C38 49.9601 37.88 50.5001 36.75 50.4201C36.75 50.4201 29.61 50.3801 28.49 50.4601C28.49 50.4601 27.82 50.3801 27.99 49.8001L28.01 49.8201Z" fill="white"/>
<path d="M26.72 49.03C26.72 49.03 27.43 49.15 27.43 49.82C27.43 50.49 27.47 50.86 27.05 50.94C26.63 51.02 26.18 50.9 26.06 50.36C25.93 49.82 26.14 49.16 26.72 49.03Z" fill="white"/>
<path d="M27.55 48.7C27.55 48.7 28.3 48.2 28.59 48.29C28.59 48.29 32.37 48.54 33.53 48.33C34.69 48.12 33.9901 48.29 33.9901 48.29C33.9901 48.29 34.99 48.29 35.28 47.91C35.28 47.91 35.5701 47.83 35.7401 48.12L36.36 48.79C36.36 48.79 36.4 49.2 35.7 49.16C35.7 49.16 28.93 49.16 28.73 49.2C28.73 49.2 27.4401 49.41 27.5701 48.7H27.55Z" fill="white" stroke="#231F20" stroke-width="0.18"/>
<path d="M17.7101 33.9601C17.7101 33.9601 18.0001 33.9601 17.9601 34.4601L17.87 47.0001C17.87 47.0001 17.99 47.8301 17.29 48.3701C17.29 48.3701 16.92 48.8301 16.92 48.1201L17.09 35.3301C17.09 35.3301 17.1301 34.3701 17.7101 33.9601Z" fill="white" stroke="#231F20" stroke-width="0.18"/>
<path d="M17.0501 34.05C17.0501 34.05 16.55 34.96 16.59 35.17L16.5501 37.95C16.5501 37.95 16.5101 39.73 16.5501 39.94C16.5901 40.15 16.51 45.38 16.51 45.38C16.51 45.38 16.47 46.37 16.51 46.71V48.95C16.51 48.95 16.43 49.95 17.18 49.7C17.18 49.7 24.4901 49.54 24.9401 49.66C24.9401 49.66 25.6001 49.78 25.3601 50.12C25.3601 50.12 25.36 50.41 24.9 50.33C24.9 50.33 21.45 50.66 18.34 50.54C18.34 50.54 16.2601 50.66 16.1401 50.42C16.1401 50.42 15.8101 50.38 15.8101 49.18C15.8101 49.18 15.81 48.06 15.73 47.85C15.73 47.85 15.8101 47.27 14.7701 47.14C14.7701 47.14 13.3201 47.39 13.2801 46.52C13.2801 46.52 13.49 45.9 14.9 45.98C14.9 45.98 15.94 46.15 15.73 45.32L15.8501 39.18C15.8501 39.18 15.9801 38.1 15.2701 38.06C15.2701 38.06 14.61 38.02 14.4 38.1C14.4 38.1 13.1901 38.1 13.2801 37.39C13.2801 37.39 13.69 36.64 14.9 36.81C14.9 36.81 15.8101 36.98 15.8501 35.94C15.8501 35.94 15.8101 33.82 16.3101 33.74C16.3101 33.74 17.3501 33.78 17.0601 34.07L17.0501 34.05Z" fill="white"/>
<path d="M18.29 47.79C18.29 47.79 18.87 48.41 19.83 48.37L25.47 48.45C25.47 48.45 26.1 48.49 26.06 48.83C26.06 48.83 25.97 49.33 25.23 49.16L18.42 49.08L17.67 49.12C17.67 49.12 17.17 49.04 17.96 48.08L18.29 47.79Z" fill="white" stroke="#231F20" stroke-width="0.18"/>
<path d="M35.73 47.2501C35.73 47.2501 36.23 48.2 36.48 48.33C36.48 48.33 36.94 48.8701 36.81 47.9101L36.9 35.9501C36.9 35.9501 36.77 35.5401 36.9 34.8701L36.4 33.9601C36.4 33.9601 35.86 33.5401 35.86 34.2101L35.78 46.9601L35.74 47.2501H35.73Z" fill="white" stroke="#231F20" stroke-width="0.18"/>
<path d="M26.52 41.5601C26.52 41.5601 26.56 42.5501 26.43 43.5101C26.36 44.0301 26.6 46.4601 26.39 47.7001C26.39 47.7001 26.35 48.1101 25.47 47.7401C25.47 47.7401 20.16 47.8601 19.99 47.7001C19.99 47.7001 18.54 47.7401 18.41 46.9901C18.41 46.9901 18.62 41.3001 18.49 41.0901C18.49 41.0901 18.41 37.9801 18.49 37.6901C18.49 37.6901 18.61 34.8301 18.53 34.4901C18.53 34.4901 18.57 33.8301 18.45 33.4901C18.45 33.4901 18.45 33.0801 19.16 33.3201C19.16 33.3201 19.41 33.7801 20.78 33.5701C20.78 33.5701 21.78 33.7401 22.73 33.6101C22.73 33.6101 24.85 33.4401 25.39 33.6101C25.39 33.6101 26.22 33.4401 26.47 34.3601L26.43 36.9301L26.68 37.7601L26.97 37.5501L27.09 36.9301L27.13 34.1901C27.13 34.1901 27.3 33.6901 27.96 33.6101C27.96 33.6101 29 33.4801 29.17 33.5701C29.33 33.6501 31.57 33.7801 32.2 33.6501C32.82 33.5301 32.95 34.0601 34.82 33.1101C34.82 33.1101 35.32 33.1501 35.32 33.4801C35.32 33.4801 35.15 37.0101 35.32 37.6801C35.32 37.6801 35.32 44.1501 35.19 44.6101L35.27 46.6901C35.27 46.6901 35.35 47.6001 33.9 47.6901C33.9 47.6901 34.81 47.8101 29.08 47.6501C29.08 47.6501 28.17 47.6101 27.17 48.0601C27.17 48.0601 26.96 48.0201 26.96 47.4801C26.96 47.4801 27.12 45.5301 26.96 43.6201L26.88 41.5001L26.51 41.5401L26.52 41.5601Z" fill="white"/>
<path d="M22.7801 38.61C22.7801 38.61 22.9101 41.68 22.7801 42.1L22.7401 42.76C22.7401 42.76 22.9101 43.22 23.1501 43.38C23.1501 43.38 23.3601 43.96 22.8601 43.92C22.8601 43.92 21.8201 43.84 21.5701 43.88C21.5701 43.88 20.9901 43.88 21.5701 43.14C21.5701 43.14 21.7801 42.85 21.7401 42.1C21.7401 42.1 21.7401 38.61 21.8201 38.4C21.8201 38.4 21.9001 37.94 21.6101 37.82L21.1101 37.86L20.4901 38.44C20.4901 38.44 20.3601 39.06 20.0701 38.4V38.07L20.4501 37.07L20.7001 37.03C20.7001 37.03 21.0701 37.28 21.4101 37.36H23.3601L24.0701 37.03C24.0701 37.03 24.3601 37.07 24.2801 37.45C24.2801 37.45 24.4001 38.41 23.8601 38.53C23.8601 38.53 23.5301 38.41 23.3601 37.95C23.3601 37.95 22.8201 37.66 22.7801 38.61Z" fill="#231F20"/>
<path d="M31.95 37.4901C31.95 37.4901 30.37 37.3601 30.33 39.0701C30.33 39.0701 30.16 40.2301 31.91 40.9801C31.91 40.9801 33.2 41.6001 33.11 42.3901C33.11 42.3901 32.94 43.8001 31.57 43.1001C31.57 43.1001 30.91 42.7701 30.95 42.3901C30.95 42.3901 30.74 41.9301 30.49 42.0201C30.49 42.0201 30.2 42.1001 30.32 43.4701C30.32 43.4701 30.32 44.0101 30.94 43.4701L31.27 43.5501C31.27 43.5501 32.39 44.4601 33.34 43.3401C33.34 43.3401 34.38 42.3901 33.63 41.2201C33.63 41.2201 33.09 40.3901 32.14 39.9801C32.14 39.9801 31.23 39.5601 31.02 38.8601C31.02 38.8601 31.31 37.6101 32.43 38.2801C32.43 38.2801 32.85 38.7801 33.1 38.8601C33.1 38.8601 33.43 38.8601 33.35 38.1101L33.27 37.4901C33.27 37.4901 33.19 37.0301 32.61 37.4901C32.61 37.4901 32.07 37.7001 31.94 37.4901H31.95Z" fill="#231F20"/>
<path d="M26.8901 36.6201C27.1801 36.8301 27.2201 37.2401 27.2201 37.2401C28.0501 39.4401 28.7601 42.6401 28.7601 42.6401C28.9701 43.0601 29.3401 43.3901 29.3401 43.3901C30.0401 43.6401 29.3401 43.8501 29.3401 43.8501C29.0501 43.9701 28.1001 43.8101 28.1001 43.8101C27.6001 43.7301 27.8101 43.5601 27.8101 43.5601C28.0201 43.3501 27.8501 42.5201 27.8501 42.5201C27.8101 42.1901 27.4401 41.6501 27.4401 41.6501C27.2701 41.5701 26.9801 41.9401 26.9801 41.9401C26.9801 41.9401 26.5201 42.1101 26.4801 41.9401C26.4401 41.7701 26.1501 41.6101 26.1501 41.6101C25.6501 41.6101 25.4401 42.8501 25.4401 42.8501C25.7301 43.8901 25.4401 43.7201 25.4401 43.7201C25.1901 44.0501 24.4001 43.8001 24.4001 43.8001C24.0301 43.7201 24.2801 43.4201 24.2801 43.4201C24.7301 43.3401 24.8601 42.8401 24.8601 42.8401C25.0701 42.5501 26.4001 37.1501 26.4001 37.1501C26.5301 36.9001 26.6101 36.4001 26.9001 36.6101L26.8901 36.6201ZM26.2301 39.3501C26.1901 39.5601 25.9001 40.7201 25.9001 40.7201L26.1501 41.1401C26.1501 41.1401 26.8101 41.1801 27.0601 41.1801C27.3101 41.1801 27.3501 40.9701 27.3501 40.7701C27.3501 40.5701 26.8901 39.3201 26.8901 39.3201L26.6801 39.0701L26.2301 39.3601V39.3501Z" fill="#231F20"/>
<path d="M15.59 26.5601C15.59 26.5601 15.13 28.0201 13.1 26.5201L6.13001 26.3501C6.13001 26.3501 5.22001 26.6401 5.09001 25.6901C5.09001 25.6901 5.26001 23.78 5.17001 23.61C5.17001 23.61 5.21002 23.0701 4.30002 23.0701C4.30002 23.0701 2.89001 23.2401 2.85001 21.9901C2.85001 21.9901 2.60002 20.6601 4.55002 20.7001C4.55002 20.7001 5.17001 20.9901 5.22001 20.2001C5.22001 20.2001 5.14001 14.8001 5.18001 14.3801C5.18001 14.3801 5.35001 13.89 4.39001 13.8C4.39001 13.8 3.02001 14.0901 2.86001 13.1701C2.86001 13.1701 2.77002 11.8001 3.69002 11.7201C3.69002 11.7201 4.81001 11.8001 5.02001 11.5101C5.02001 11.5101 5.27002 11.6701 5.23002 10.6801L5.27001 8.98007C5.27001 8.98007 5.39001 8.52006 6.10001 8.56006C6.10001 8.56006 7.39001 8.64005 7.56001 8.52005C7.56001 8.52005 7.85001 8.15007 7.93001 7.98007C7.93001 7.98007 8.60001 7.94005 8.72001 8.11005C8.72001 8.11005 9.71002 8.77005 13.49 8.52005C13.49 8.52005 14.07 8.52006 14.2 8.69006C14.2 8.69006 14.9 9.23005 15.32 8.65005C15.32 8.65005 15.94 8.53007 17.81 8.57007C17.81 8.57007 19.84 9.11007 21.26 7.95007L21.72 8.03006C21.72 8.03006 22.3 8.99006 22.72 8.69006C22.72 8.69006 23.96 8.57006 24.17 8.81006C24.17 8.81006 24.59 9.43005 24.38 11.05C24.38 11.05 24.13 11.7601 25.34 11.7601C25.34 11.7601 26.71 11.51 26.54 12.8C26.54 12.8 26.92 14.26 24.63 14.05C24.63 14.05 24.34 14.4701 24.38 14.7601C24.38 14.7601 24.34 19.4901 24.3 20.0301C24.3 20.0301 24.26 20.7801 25.25 20.7401C25.25 20.7401 26.58 20.66 26.62 21.86C26.62 21.86 26.78 23.4401 24.88 23.1501C24.88 23.1501 24.3 23.23 24.22 23.61L24.14 25.6901C24.14 25.6901 24.18 26.7301 23.02 26.4801C22.85 26.4801 16.55 26.6001 16.01 26.4401C16.01 26.4401 15.72 26.4001 15.63 26.5601H15.59Z" fill="#231F20" stroke="#231F20" stroke-width="0.36"/>
<path d="M7.74004 9.4601C7.74004 9.4601 7.82004 10.2901 7.82004 10.5001C7.82004 10.7101 7.70004 22.5001 7.70004 22.5001C7.70004 22.5001 7.82004 23.4201 7.04004 23.8701C7.04004 23.8701 6.83004 23.9601 6.79004 23.3701L6.87004 10.9101C6.87004 10.9101 6.95004 9.3701 7.74004 9.4601Z" fill="white" stroke="#231F20" stroke-width="0.18"/>
<path d="M6.37004 23.99C6.37004 23.99 6.45004 12.2801 6.41004 12.0701C6.37004 11.8601 6.45004 12.24 6.45004 12.24C6.45004 12.24 6.33004 10.2 6.87004 9.37004C6.87004 9.37004 6.70004 8.66005 5.75004 9.53005L5.71004 11.2301C5.71004 11.2301 5.71004 12.1801 4.84004 12.1401C4.84004 12.1401 3.84004 12.1 3.39004 12.55C3.39004 12.55 3.14004 13.46 4.10004 13.3C4.10004 13.3 5.60004 13.3001 5.68004 13.9201L5.60004 20.1901C5.60004 20.1901 5.93004 21.2301 4.77004 21.2301C4.77004 21.2301 3.36004 21.15 3.40004 22.02C3.40004 22.02 3.69004 22.77 4.90004 22.52C4.90004 22.52 5.77004 22.6801 5.73004 23.5101V25.09C5.73004 25.09 5.65004 25.71 6.48004 25.75H12.96C12.96 25.75 13.29 25.79 13.29 25.37C13.29 25.37 13.25 25.0401 12.75 25.0401L7.35004 24.9501C7.35004 24.9501 6.48004 25.2401 6.39004 23.9501L6.37004 23.99Z" fill="white"/>
<path d="M7.49 24.07C7.49 24.07 7.32 24.65 7.95 24.53H12.23L13.39 24.78C13.39 24.78 14.59 24.49 13.39 23.82C13.39 23.82 9.57 23.86 9.24 23.78C9.24 23.78 8.45001 23.57 8.29001 23.53C8.29001 23.53 7.87 23.36 7.5 24.07H7.49Z" fill="white" stroke="#231F20" stroke-width="0.18"/>
<path d="M14.5901 24.6601C14.5901 24.6601 13.8001 24.6601 13.8401 25.7001C13.8401 25.7001 13.9201 26.4901 14.7501 26.4901C14.7501 26.4901 15.5001 26.3701 15.4201 25.5401C15.4201 25.5401 14.9601 24.5001 14.5901 24.6701V24.6601Z" fill="white"/>
<path d="M15.1701 24.24C15.1701 24.24 15.5401 23.8201 15.7901 23.8201C15.7901 23.8201 19.9401 24.2001 20.6501 23.7001C20.6501 23.7001 21.2701 23.5801 21.4401 23.7001C21.4401 23.7001 22.0601 24.2 22.0601 24.49C22.0601 24.49 22.0201 24.8701 21.2701 24.6601C21.2701 24.6601 16.5801 24.7001 16.3301 24.7001C16.3301 24.7001 15.0401 24.99 15.1701 24.24Z" fill="white" stroke="#231F20" stroke-width="0.18"/>
<path d="M15.8401 25.49C15.8401 25.49 15.8401 25.1601 16.4201 25.1601L22.2401 25.1201C22.2401 25.1201 22.7801 25.4101 22.7801 24.4201C22.7801 24.4201 22.9901 19.8901 23.0101 14.9101C23.0101 13.4301 23.0801 11.87 23.0201 10.43C23.0201 10.43 22.9001 9.81005 22.7301 9.68005C22.7301 9.68005 22.7301 9.02004 23.4401 9.27004C23.4401 9.27004 24.0601 9.31004 23.8901 10.27L23.9301 11.7201C23.9301 11.7201 23.8101 12.34 24.9301 12.18C24.9301 12.18 26.0501 12.3401 26.0901 12.7601C26.0901 12.7601 26.4201 13.5901 25.0901 13.5101H24.1401C24.1401 13.5101 23.7201 13.7601 23.8501 14.2601L23.7301 20.2801C23.7301 20.2801 23.6501 21.3201 24.6401 21.2801C24.6401 21.2801 25.6801 21.2401 25.8901 21.5701C25.8901 21.5701 26.6001 22.61 25.0601 22.52C25.0601 22.52 24.1001 22.48 23.9001 22.65C23.9001 22.65 23.7401 22.8601 23.6101 24.8101C23.6101 24.8101 23.6901 25.9801 22.8201 25.8501C22.8201 25.8501 17.0501 25.9301 16.5101 25.8101C16.5101 25.8101 15.9301 25.98 15.8501 25.52L15.8401 25.49Z" fill="white"/>
<path d="M8.36007 9.09009L8.24007 22.4101C8.24007 22.4101 8.20007 23.0301 9.24007 23.1601C9.24007 23.1601 10.4501 23.2801 10.7401 23.1601C10.7401 23.1601 11.5301 23.1201 13.5601 23.2001C13.5601 23.2001 14.0601 23.7001 14.1001 23.0801C14.1001 23.0801 14.4301 12.2901 14.2701 10.0401C14.2701 10.0401 14.2301 9.0901 13.5201 9.0401C13.5201 9.0401 10.3701 9.2901 10.0801 9.0401L8.83008 8.71008C8.83008 8.71008 8.33008 8.75009 8.37008 9.09009H8.36007Z" fill="white"/>
<path d="M21.53 9.58009L21.49 22.7001C21.49 22.7001 21.82 23.8601 22.36 23.7401C22.36 23.7401 22.44 23.4901 22.48 23.0701L22.65 10.5701C22.65 10.5701 22.23 8.58011 21.53 9.57011V9.58009Z" fill="white" stroke="#231F20" stroke-width="0.18"/>
<path d="M14.9201 9.69004C14.9201 9.69004 14.7901 15.96 14.8301 16.17L14.7501 21.44L14.5801 23.27C14.5801 23.27 14.8301 23.64 15.0401 23.39C15.0401 23.39 16.3701 23.06 17.2001 23.18C17.2001 23.18 19.8601 23.43 20.4001 23.01C20.4001 23.01 20.8201 23.22 20.9401 22.56C20.9401 22.56 21.1001 10.94 21.0201 10.73C21.0201 10.73 21.1901 9.07003 21.1001 8.90003C21.1001 8.90003 21.0601 8.52002 20.3601 8.86002C20.3601 8.86002 20.4401 9.19004 16.5001 9.07004C16.5001 9.07004 15.0001 9.03004 14.9201 9.69004Z" fill="white"/>
<path d="M13.6401 13.5301L13.26 14.3201C13.26 14.3201 12.35 18.3401 11.85 19.1701C11.85 19.1701 11.77 20.0001 11.06 19.3401C11.06 19.3401 9.44005 14.2301 9.36005 14.0701L8.82005 13.6901C8.82005 13.6901 8.49005 13.2401 9.07005 13.1901L10.6101 13.2301C10.6101 13.2301 11.1101 13.6401 10.4401 14.1001C10.4401 14.1001 10.5201 14.76 11.4001 17.3C11.4001 17.3 11.6501 18.25 11.9401 17.55L12.77 14.6001L12.52 13.7301C12.52 13.7301 12.2701 13.3201 12.6501 13.2701C12.6501 13.2701 13.52 13.1901 13.65 13.5201L13.6401 13.5301Z" fill="#231F20"/>
<path d="M16.05 14.2001L16.01 18.6001L15.89 18.9301C15.89 18.9301 15.47 19.4701 15.76 19.5101C15.76 19.5101 15.39 19.7601 18.42 19.8001C18.42 19.8001 19.58 20.0101 19.29 18.5101C19.29 18.5101 19.17 17.9701 18.75 18.7601C18.75 18.7601 18.62 19.4201 17.13 19.2101C17.13 19.2101 16.8 18.9201 16.8 18.5901V16.7601C16.8 16.7601 16.76 16.3001 17.46 16.3501C17.46 16.3501 18.25 16.8501 18.37 16.6401C18.37 16.6401 18.66 15.9801 18.37 15.5601C18.37 15.5601 17.99 15.5201 17.95 15.6801C17.95 15.6801 17.7 16.1801 16.99 15.8901C16.99 15.8901 16.66 15.2301 16.87 14.6801C16.87 14.6801 16.79 13.6401 17.49 13.7201C17.49 13.7201 18.32 13.8901 18.4 14.1401C18.4 14.1401 18.61 14.6401 18.82 14.0601L18.61 13.3601C18.61 13.3601 18.49 13.0701 18.28 13.1501C18.28 13.1501 16.87 13.3601 16.7 13.1901L15.58 13.3101C15.58 13.3101 15.42 13.7201 15.91 13.9301C15.91 13.9301 16.04 14.0201 16.04 14.1801L16.05 14.2001Z" fill="#231F20"/>
<path d="M67.3101 51.16C67.8201 51.03 68.2201 50.56 68.2201 50.01V39.17C68.2201 38.64 67.8401 38.17 67.3101 38.02V37.74C67.4601 37.74 68.7301 37.78 69.0501 37.78C69.4101 37.78 70.7301 37.74 70.9001 37.74V38.02C70.3901 38.15 69.9901 38.62 69.9901 39.17V43.74H77.9201V39.17C77.9201 38.62 77.5601 38.17 77.0301 38.02V37.74C77.1801 37.74 78.5001 37.78 78.8601 37.78C79.1801 37.78 80.4301 37.74 80.6001 37.74V38.02C80.0901 38.15 79.6901 38.62 79.6901 39.17V50.01C79.6901 50.54 80.0701 51.01 80.6001 51.16V51.44C80.4501 51.44 79.1801 51.4 78.8601 51.4C78.5001 51.4 77.2001 51.44 77.0301 51.44V51.16C77.5401 51.03 77.9201 50.56 77.9201 50.01V44.65H69.9901V50.01C69.9901 50.56 70.3701 51.01 70.9001 51.16V51.44C70.7501 51.44 69.4101 51.4 69.0501 51.4C68.7301 51.4 67.4801 51.44 67.3101 51.44V51.16Z" fill="#231F20"/>
<path d="M82.4 44.63C82.4 40.83 85.01 37.53 89.14 37.53C93.27 37.53 95.86 40.8 95.86 44.63C95.86 48.46 93.25 51.64 89.14 51.64C85.03 51.64 82.4 48.45 82.4 44.63ZM93.92 44.63C93.92 41.44 92.5 38.38 89.14 38.38C85.78 38.38 84.36 41.44 84.36 44.63C84.36 47.82 85.78 50.79 89.14 50.79C92.5 50.79 93.92 47.81 93.92 44.63Z" fill="#231F20"/>
<path d="M97.75 51.16C98.41 51.03 98.77 50.5 98.77 49.95V39.17C98.77 38.49 98.37 38.17 97.66 38.02V37.74C97.81 37.74 99.34 37.78 99.7 37.78C100.02 37.78 101.49 37.74 101.66 37.74V38.02C100.98 38.21 100.53 38.47 100.53 39.17V50.48H104.53C105.89 50.48 106.42 49.91 106.93 48.78L107.21 48.84L106.89 51.5C105.81 51.39 105.08 51.39 103.72 51.39H99.68C99.32 51.39 98.02 51.43 97.75 51.43V51.15V51.16Z" fill="#231F20"/>
<path d="M108.77 51.16C109.43 51.03 109.79 50.5 109.79 49.95V39.17C109.79 38.49 109.39 38.17 108.68 38.02V37.74C108.83 37.74 110.36 37.78 110.72 37.78C111.04 37.78 112.51 37.74 112.68 37.74V38.02C112 38.21 111.55 38.47 111.55 39.17V50.48H115.55C116.91 50.48 117.44 49.91 117.95 48.78L118.23 48.84L117.91 51.5C116.83 51.39 116.1 51.39 114.74 51.39H110.7C110.34 51.39 109.04 51.43 108.77 51.43V51.15V51.16Z" fill="#231F20"/>
<path d="M119.72 51.16C120.42 51.01 120.83 50.69 120.83 50.01V39.17C120.83 38.49 120.43 38.17 119.72 38.02V37.74C119.87 37.74 121.4 37.78 121.76 37.78C122.08 37.78 123.55 37.74 123.72 37.74V38.02C123.04 38.21 122.59 38.47 122.59 39.17V50.01C122.59 50.71 123.04 50.97 123.72 51.16V51.44C123.57 51.44 122.08 51.4 121.76 51.4C121.4 51.4 119.89 51.44 119.72 51.44V51.16Z" fill="#231F20"/>
<path d="M125.84 48.65H126.12C126.27 49.24 126.67 49.88 127.12 50.18C127.76 50.61 128.78 50.8 129.52 50.8C131.16 50.8 132.47 50.18 132.47 48.46C132.47 47.69 132.28 46.97 131.62 46.52C130.52 45.76 128.96 45.22 127.58 44.52C126.43 43.95 125.52 43.1 125.52 41.35C125.52 38.69 127.71 37.52 130.32 37.52C131.38 37.52 132.59 37.82 133.66 37.77L133.77 40.3H133.49C133.32 39.77 132.89 39.26 132.45 38.96C131.81 38.56 130.92 38.36 130.16 38.36C128.52 38.36 127.29 39.21 127.29 40.64C127.29 41.79 127.84 42.47 128.61 42.91C129.84 43.63 131.5 44.21 132.73 44.97C133.62 45.52 134.22 46.31 134.22 47.63C134.22 50.16 132.33 51.63 129.63 51.63C128.38 51.63 127.21 51.35 125.93 50.99L125.85 48.63L125.84 48.65Z" fill="#231F20"/>
<path d="M141.29 51.18C141.74 50.99 142.23 50.75 142.23 50.35V43.38H141.02V42.78L142.23 42.57V39.94C142.23 37.92 143.72 36.9 144.97 36.9C145.78 36.9 146.46 37.15 147.05 37.32V39.04H146.77C146.35 38.3 145.98 37.66 145.01 37.66C144.48 37.66 143.84 38.23 143.84 39.38V42.57H146.16V43.38H143.84V50.35C143.84 50.78 144.41 51.01 145.01 51.18V51.43C144.73 51.43 143.29 51.39 143.01 51.39C142.73 51.39 141.54 51.43 141.29 51.43V51.18Z" fill="#231F20"/>
<path d="M146.41 47.01C146.41 44.37 148.26 42.42 150.87 42.42C153.48 42.42 155.33 44.38 155.33 47.01C155.33 49.64 153.52 51.58 150.87 51.58C148.22 51.58 146.41 49.67 146.41 47.01ZM153.61 46.99C153.61 45.25 152.82 43.19 150.87 43.19C148.92 43.19 148.13 45.25 148.13 46.99C148.13 48.73 148.92 50.82 150.87 50.82C152.82 50.82 153.61 48.74 153.61 46.99Z" fill="#231F20"/>
<path d="M156.97 51.18C157.42 50.99 157.91 50.75 157.91 50.35V44.78C157.91 44.1 157.53 43.78 156.83 43.63V43.4L159.21 42.42H159.44C159.46 42.82 159.52 44.01 159.52 44.01C160.05 43.31 160.69 42.42 162.01 42.42C162.5 42.42 162.97 42.55 163.37 42.72V44.66H163.09C162.75 44.04 162.22 43.58 161.52 43.58C160.27 43.58 159.52 44.52 159.52 45.54V50.36C159.52 50.79 159.97 50.98 160.48 51.19V51.44C160.2 51.44 158.97 51.4 158.69 51.4C158.41 51.4 157.22 51.44 156.97 51.44V51.19V51.18Z" fill="#231F20"/>
<path d="M168.83 51.16C169.62 50.88 169.85 50.48 170.15 49.74L174.42 39.18C174.61 38.71 174.91 37.63 174.91 37.63H176.02C176.02 37.63 176.3 38.71 176.47 39.18L180.42 49.74C180.72 50.53 181.02 50.95 181.8 51.16V51.44C181.48 51.44 180.23 51.4 179.91 51.4C179.59 51.4 178.38 51.44 178.06 51.44V51.16C178.63 50.97 178.76 50.65 178.7 50.27C178.68 50.1 178.51 49.61 178.45 49.46L177.64 47.4H172.22L171.5 49.16C171.41 49.35 171.2 50.1 171.18 50.2C171.1 50.65 171.35 50.97 171.95 51.16V51.44C171.69 51.44 170.8 51.4 170.53 51.4C170.26 51.4 169.19 51.44 168.85 51.44V51.16H168.83ZM177.31 46.48L175.02 40.42L172.58 46.48H177.32H177.31Z" fill="#231F20"/>
<path d="M182.68 51.18C183.13 50.99 183.62 50.75 183.62 50.35V44.78C183.62 44.1 183.24 43.78 182.54 43.63V43.4L184.92 42.42H185.15C185.17 42.82 185.23 44.01 185.23 44.01C185.76 43.31 186.4 42.42 187.72 42.42C188.21 42.42 188.68 42.55 189.08 42.72V44.66H188.8C188.46 44.04 187.93 43.58 187.23 43.58C185.98 43.58 185.23 44.52 185.23 45.54V50.36C185.23 50.79 185.68 50.98 186.19 51.19V51.44C185.91 51.44 184.68 51.4 184.4 51.4C184.12 51.4 182.93 51.44 182.68 51.44V51.19V51.18Z" fill="#231F20"/>
<path d="M197.81 50.01C197.34 50.56 196.17 51.58 194.49 51.58C191.49 51.58 189.9 49.75 189.9 46.99C189.9 44.08 191.88 42.42 194.45 42.42C195.34 42.42 196.62 42.61 197.43 42.84V44.65H197.15C196.64 43.76 195.77 43.18 194.51 43.18C192.72 43.18 191.62 44.6 191.62 46.75C191.62 49.13 192.92 50.55 194.77 50.55C195.92 50.55 196.92 50.15 197.45 49.59L197.81 49.99V50.01Z" fill="#231F20"/>
<path d="M199.77 51.18C200.22 50.99 200.7 50.75 200.7 50.35V39.26C200.7 38.58 200.32 38.26 199.62 38.11V37.88L202.09 36.9H202.32V43.81C203.08 43.09 204.04 42.43 205.36 42.43C207.19 42.43 208.25 43.6 208.25 45.02V50.35C208.25 50.78 208.7 50.97 209.21 51.18V51.43C208.93 51.43 207.7 51.39 207.42 51.39C207.14 51.39 205.95 51.43 205.7 51.43V51.18C206.15 50.99 206.64 50.75 206.64 50.35V46.21C206.64 44.7 206.05 43.51 204.54 43.51C203.58 43.51 202.75 44.15 202.33 44.68V50.35C202.33 50.78 202.78 50.97 203.29 51.18V51.43C203.01 51.43 201.78 51.39 201.5 51.39C201.22 51.39 200.03 51.43 199.78 51.43V51.18H199.77Z" fill="#231F20"/>
<path d="M211.46 51.18C211.91 50.99 212.39 50.75 212.39 50.35V44.78C212.39 44.1 212.01 43.78 211.31 43.63V43.4L213.78 42.42H214.01V50.35C214.01 50.78 214.46 50.97 214.97 51.18V51.43C214.69 51.43 213.46 51.39 213.18 51.39C212.9 51.39 211.71 51.43 211.46 51.43V51.18ZM213.13 38.91C213.64 38.91 214.09 39.36 214.09 39.85C214.09 40.34 213.64 40.79 213.13 40.79C212.62 40.79 212.15 40.36 212.15 39.85C212.15 39.34 212.62 38.91 213.13 38.91Z" fill="#231F20"/>
<path d="M217.21 43.91C216.93 43.27 216.7 43.1 216.15 42.91V42.66C216.43 42.66 217.51 42.7 217.79 42.7C218.07 42.7 219.21 42.66 219.49 42.66V42.91C219.07 42.97 218.9 43.25 218.9 43.51C218.9 43.72 219.03 44 219.13 44.23L221.32 49.44L223.49 44.3C223.62 44 223.62 43.7 223.57 43.49C223.51 43.21 223.27 43 222.85 42.92V42.67C223.1 42.67 224.04 42.71 224.3 42.71C224.56 42.71 225.49 42.67 225.75 42.67V42.92C225.18 43.13 224.82 43.45 224.52 44.15L221.35 51.63H220.61L217.23 43.92L217.21 43.91Z" fill="#231F20"/>
<path d="M227.63 42.8501C228.44 42.6201 229.37 42.4301 230.63 42.4301C233.16 42.4301 233.67 43.7301 233.67 45.1501V49.5701C233.67 50.2501 233.88 50.4201 234.14 50.4201C234.29 50.4201 234.52 50.4 234.63 50.33L234.78 50.6701C234.78 50.6701 234.33 50.9001 233.89 51.2001C233.55 51.4301 233.1 51.7901 233.1 51.7901C232.8 51.5101 232.44 51.0501 232.23 50.4501C231.61 51.1301 230.61 51.58 229.49 51.58C227.87 51.58 226.73 50.8201 226.73 49.0901C226.73 47.4701 228.26 46.6501 229.81 46.3701C230.23 46.3101 231.6 46.2901 232.06 46.2901V44.9101C232.06 43.9501 231.46 43.1701 230.17 43.1701C229.13 43.1701 228.43 43.6801 227.92 44.5701H227.64V42.8501H227.63ZM232.05 46.9701H230.8C229.55 46.9701 228.44 47.6501 228.44 49.0101C228.44 49.9901 229.1 50.5601 229.91 50.5601C230.76 50.5601 231.61 50.0901 232.06 49.3701V46.9701H232.05Z" fill="#231F20"/>
<path d="M236.3 51.18C236.75 50.99 237.24 50.75 237.24 50.35V39.26C237.24 38.58 236.86 38.26 236.16 38.11V37.88L238.63 36.9H238.86V50.35C238.86 50.78 239.31 50.97 239.82 51.18V51.43C239.54 51.43 238.31 51.39 238.03 51.39C237.75 51.39 236.56 51.43 236.31 51.43V51.18H236.3Z" fill="#231F20"/>
<path d="M246.39 51.16C247.05 51.03 247.41 50.5 247.41 49.95V39.17C247.41 38.64 247.03 38.17 246.39 38.02V37.74C246.65 37.74 247.96 37.78 248.32 37.78C248.94 37.78 250.79 37.65 252.12 37.65C256.29 37.65 259.09 40.75 259.09 44.81C259.09 48.87 256.26 51.51 252.12 51.51C250.78 51.51 248.93 51.38 248.32 51.38C247.96 51.38 246.66 51.42 246.39 51.42V51.14V51.16ZM249.18 50.54C249.63 50.67 250.6 50.71 251.33 50.71C254.9 50.71 257.18 48.33 257.18 44.74C257.18 41.15 254.86 38.36 251.44 38.36C250.67 38.36 249.63 38.4 249.19 38.53V50.54H249.18Z" fill="#231F20"/>
<path d="M261.16 51.18C261.61 50.99 262.09 50.75 262.09 50.35V44.78C262.09 44.1 261.71 43.78 261.01 43.63V43.4L263.48 42.42H263.71V50.35C263.71 50.78 264.16 50.97 264.67 51.18V51.43C264.39 51.43 263.16 51.39 262.88 51.39C262.6 51.39 261.41 51.43 261.16 51.43V51.18ZM262.84 38.91C263.35 38.91 263.8 39.36 263.8 39.85C263.8 40.34 263.35 40.79 262.84 40.79C262.33 40.79 261.86 40.36 261.86 39.85C261.86 39.34 262.33 38.91 262.84 38.91Z" fill="#231F20"/>
<path d="M266.94 49.29H267.22C267.81 50.35 268.5 50.82 269.6 50.82C270.81 50.82 271.47 50.37 271.47 49.59C271.47 49.08 271.22 48.74 270.77 48.53L268.13 47.23C267.28 46.81 266.75 46.15 266.75 45.1C266.75 43.36 268.32 42.42 270 42.42C270.87 42.42 271.96 42.63 272.68 42.84V44.65H272.4C271.93 43.82 271.15 43.18 270.04 43.18C269 43.18 268.34 43.73 268.34 44.52C268.34 45.2 268.59 45.54 269.3 45.88L271.98 47.18C272.45 47.41 273.02 47.99 273.02 48.97C273.02 50.65 271.7 51.58 269.62 51.58C268.75 51.58 267.66 51.37 266.94 51.16V49.29Z" fill="#231F20"/>
<path d="M282.94 50.01C282.47 50.56 281.3 51.58 279.62 51.58C276.62 51.58 275.03 49.75 275.03 46.99C275.03 44.08 277.01 42.42 279.58 42.42C280.47 42.42 281.75 42.61 282.56 42.84V44.65H282.28C281.77 43.76 280.9 43.18 279.64 43.18C277.85 43.18 276.75 44.6 276.75 46.75C276.75 49.13 278.05 50.55 279.9 50.55C281.05 50.55 282.05 50.15 282.58 49.59L282.94 49.99V50.01Z" fill="#231F20"/>
<path d="M284.81 47.01C284.81 44.37 286.66 42.42 289.27 42.42C291.88 42.42 293.73 44.38 293.73 47.01C293.73 49.64 291.92 51.58 289.27 51.58C286.62 51.58 284.81 49.67 284.81 47.01ZM292.02 46.99C292.02 45.25 291.23 43.19 289.28 43.19C287.33 43.19 286.54 45.25 286.54 46.99C286.54 48.73 287.33 50.82 289.28 50.82C291.23 50.82 292.02 48.74 292.02 46.99Z" fill="#231F20"/>
<path d="M295.82 43.91C295.54 43.27 295.31 43.1 294.76 42.91V42.66C295.04 42.66 296.12 42.7 296.4 42.7C296.68 42.7 297.82 42.66 298.1 42.66V42.91C297.68 42.97 297.51 43.25 297.51 43.51C297.51 43.72 297.64 44 297.74 44.23L299.93 49.44L302.1 44.3C302.23 44 302.23 43.7 302.18 43.49C302.12 43.21 301.88 43 301.46 42.92V42.67C301.71 42.67 302.65 42.71 302.91 42.71C303.17 42.71 304.1 42.67 304.36 42.67V42.92C303.79 43.13 303.43 43.45 303.13 44.15L299.96 51.63H299.22L295.84 43.92L295.82 43.91Z" fill="#231F20"/>
<path d="M313.12 50.22C312.65 50.77 311.7 51.58 310.02 51.58C307.02 51.58 305.43 49.75 305.43 46.99C305.43 44.23 307.36 42.42 309.68 42.42C312 42.42 313.4 44.01 313.29 45.84C313.29 45.99 313.27 46.18 313.23 46.29H307.19C306.91 48.73 308.27 50.56 310.29 50.56C311.44 50.56 312.22 50.37 312.76 49.82L313.12 50.22ZM311.57 45.57C311.72 44.51 311.04 43.19 309.7 43.19C308.36 43.19 307.47 44.49 307.28 45.57H311.57Z" fill="#231F20"/>
<path d="M315.24 51.18C315.69 50.99 316.18 50.75 316.18 50.35V44.78C316.18 44.1 315.8 43.78 315.1 43.63V43.4L317.48 42.42H317.71C317.73 42.82 317.79 44.01 317.79 44.01C318.32 43.31 318.96 42.42 320.28 42.42C320.77 42.42 321.24 42.55 321.64 42.72V44.66H321.36C321.02 44.04 320.49 43.58 319.79 43.58C318.54 43.58 317.79 44.52 317.79 45.54V50.36C317.79 50.79 318.24 50.98 318.75 51.19V51.44C318.47 51.44 317.24 51.4 316.96 51.4C316.68 51.4 315.49 51.44 315.24 51.44V51.19V51.18Z" fill="#231F20"/>
<path d="M322.83 54.52C323.02 54.61 323.32 54.63 323.64 54.63C324.04 54.63 324.64 54.46 324.98 54.25C325.57 53.89 326.11 52.68 326.66 51.38L323.39 43.92C323.11 43.28 322.88 43.11 322.33 42.92V42.67C322.61 42.67 323.69 42.71 323.97 42.71C324.25 42.71 325.39 42.67 325.67 42.67V42.92C325.25 42.98 325.08 43.26 325.08 43.52C325.08 43.73 325.21 44.01 325.31 44.24L327.5 49.45L329.67 44.31C329.8 44.01 329.8 43.71 329.75 43.5C329.69 43.22 329.5 43.01 329.07 42.93V42.68C329.32 42.68 330.24 42.72 330.49 42.72C330.74 42.72 331.66 42.68 331.91 42.68V42.93C331.34 43.14 330.98 43.46 330.68 44.16L327.49 51.64C326.28 54.47 325.58 55.66 322.9 55.66L322.84 54.53L322.83 54.52Z" fill="#231F20"/>
<path d="M66.46 26.58C67.26 26.39 67.75 25.6701 67.75 25.0601V11.1901C67.75 10.6201 67.29 9.90007 66.46 9.67007V9.18005C66.88 9.18005 68.6599 9.26007 69.1199 9.26007C69.6499 9.26007 71.55 9.18005 71.97 9.18005V9.67007C71.17 9.86007 70.64 10.5801 70.64 11.1901V16.8501H81.6199V11.1901C81.6199 10.5801 81.16 9.86007 80.33 9.67007V9.18005C80.75 9.18005 82.61 9.26007 83.14 9.26007C83.6 9.26007 85.42 9.18005 85.84 9.18005V9.67007C85.04 9.86007 84.5099 10.5801 84.5099 11.1901V25.0601C84.5099 25.6301 85 26.35 85.84 26.58V27.0701C85.42 27.0701 83.6 26.9901 83.14 26.9901C82.61 26.9901 80.75 27.0701 80.33 27.0701V26.58C81.13 26.39 81.6199 25.6701 81.6199 25.0601V18.3701H70.64V25.0601C70.64 25.6701 71.13 26.35 71.97 26.58V27.0701C71.55 27.0701 69.6499 26.9901 69.1199 26.9901C68.6599 26.9901 66.88 27.0701 66.46 27.0701V26.58Z" fill="#231F20"/>
<path d="M87.97 26.58C89 26.31 89.41 25.55 89.87 24.6L96.06 11.11C96.33 10.54 96.71 9.02002 96.71 9.02002H98.57C98.57 9.02002 98.99 10.54 99.22 11.11L104.88 24.64C105.3 25.59 105.72 26.27 106.89 26.58V27.04C106.24 27.04 104.42 27 103.96 27C103.5 27 101.79 27.04 101.15 27.04V26.58C102.02 26.31 102.14 25.78 102.06 25.4C102.02 25.21 101.79 24.6 101.72 24.41L100.58 21.86H93.13L91.99 24.41C91.91 24.6 91.69 25.21 91.65 25.4C91.57 25.78 91.88 26.31 92.75 26.58V27.04C92.18 27.04 90.93 27 90.55 27H87.97V26.58ZM99.98 20.39L96.98 13.29L93.79 20.39H99.98Z" fill="#231F20"/>
<path d="M109.02 26.58C110.05 26.39 110.46 25.5901 110.46 24.9801V11.1901C110.46 10.6201 110 9.86007 109.02 9.67007V9.18005C109.59 9.18005 111.41 9.26007 111.95 9.26007C112.82 9.26007 115.48 9.07007 117.38 9.07007C123.42 9.07007 127.52 13.1401 127.52 18.4201C127.52 23.7001 123.38 27.1601 117.38 27.1601C115.48 27.1601 112.82 27.0101 111.95 27.0101C111.42 27.0101 109.59 27.0901 109.02 27.0901V26.6001V26.58ZM113.35 25.6701C114 25.7801 115.25 25.86 116.2 25.86C121.22 25.86 124.37 22.78 124.37 18.3C124.37 13.82 121.14 10.2501 116.35 10.2501C115.32 10.2501 114.03 10.3301 113.35 10.4401V25.6801V25.6701Z" fill="#231F20"/>
</svg>
